<svg width="250" height="170" viewBox="0 0 250 170" fill="none" xmlns="http://www.w3.org/2000/svg">
<g clip-path="url(#clip0)">
<path d="M124.556 155.331C163.59 155.331 195.234 123.687 195.234 84.6527C195.234 45.618 163.59 13.9742 124.556 13.9742C85.5211 13.9742 53.8772 45.618 53.8772 84.6527C53.8772 123.687 85.5211 155.331 124.556 155.331Z" fill="url(#paint0_radial)"/>
<path d="M218.296 92.3667L214.54 87.8837L236.672 87.8433L229.362 78.8368H207.431L203.716 74.273H225.687L215.953 62.1971L176.494 62.2375L210.258 104.362H250L240.347 92.3667H218.296Z" fill="#82786F"/>
<path d="M18.4976 104.483L32.2294 87.7221L53.3522 87.7625L60.622 78.7561H39.0953L43.0533 74.2326L64.2569 74.273L73.9095 62.2779L34.2488 62.2375L0 104.483H18.4976Z" fill="#82786F"/>
<path d="M210.299 104.362L176.212 62.1567H74.0307L40.105 104.362H210.299Z" fill="white"/>
<path d="M108.118 62.1971L125.121 83.4006L142.165 62.1971H108.118Z" fill="#C4262E"/>
<path d="M176.212 62.1971L159.208 40.9935L142.165 62.1971H176.212Z" fill="#C4262E"/>
<path d="M108.118 62.1971L91.0743 40.9935L74.0307 62.1971H108.118Z" fill="#C4262E"/>
<path d="M108.118 104.362L125.121 125.565L142.165 104.362H108.118Z" fill="#C4262E"/>
<path d="M176.212 104.362L159.208 83.1583L142.165 104.362H176.212Z" fill="#C4262E"/>
<path d="M176.212 104.362L193.215 125.565L210.299 104.362H176.212Z" fill="#C4262E"/>
<path d="M108.118 104.362L91.0743 83.1583L74.0307 104.362H108.118Z" fill="#C4262E"/>
<path d="M39.9838 104.362L57.0275 125.565L74.0307 104.362H39.9838Z" fill="#C4262E"/>
<path d="M59.4911 139.257C59.1973 138.937 58.9718 138.561 58.8285 138.151C58.6851 137.741 58.627 137.306 58.6575 136.873C58.6881 136.44 58.8068 136.018 59.0062 135.632C59.2057 135.246 59.4818 134.905 59.8176 134.63C60.1534 134.355 60.5419 134.151 60.9592 134.031C61.3766 133.911 61.814 133.878 62.2447 133.933C62.6754 133.988 63.0903 134.13 63.4641 134.351C63.8379 134.572 64.1626 134.867 64.4184 135.218C64.8985 135.877 65.1085 136.694 65.0052 137.502C64.9019 138.311 64.4932 139.049 63.8629 139.565C63.2326 140.082 62.4286 140.338 61.6156 140.281C60.8027 140.223 60.0426 139.857 59.4911 139.257V139.257Z" fill="#B7B1A9"/>
<path d="M69.9515 149.717C69.6257 149.448 69.3564 149.117 69.1595 148.744C68.9625 148.37 68.8417 147.961 68.8042 147.54C68.7666 147.119 68.813 146.695 68.9406 146.292C69.0682 145.89 69.2746 145.516 69.5477 145.194C69.9556 144.7 70.5013 144.338 71.1152 144.155C71.7292 143.972 72.3838 143.975 72.9957 144.165C73.6077 144.355 74.1495 144.722 74.5522 145.22C74.9548 145.719 75.2003 146.326 75.2573 146.964C75.3142 147.602 75.1802 148.243 74.8722 148.804C74.5641 149.366 74.096 149.824 73.5273 150.119C72.9586 150.414 72.315 150.534 71.6783 150.462C71.0416 150.39 70.4406 150.131 69.9515 149.717Z" fill="#B7B1A9"/>
<path d="M82.0678 157.997C81.4301 157.568 80.9687 156.923 80.7683 156.181C80.568 155.439 80.6422 154.65 80.9774 153.958C81.415 153.229 82.1194 152.699 82.9411 152.48C83.7629 152.262 84.6375 152.372 85.3796 152.787C86.1167 153.217 86.6536 153.922 86.8731 154.746C87.0925 155.571 86.9767 156.449 86.5509 157.189C86.316 157.544 86.0116 157.848 85.656 158.082C85.3004 158.316 84.9011 158.476 84.4821 158.551C84.0631 158.627 83.6331 158.617 83.2182 158.521C82.8032 158.426 82.4119 158.248 82.0678 157.997V157.997Z" fill="#B7B1A9"/>
<path d="M95.517 164.499C94.905 164.297 94.3673 163.917 93.9731 163.408C93.5788 162.898 93.346 162.282 93.3044 161.639C93.2629 160.996 93.4146 160.355 93.74 159.799C94.0654 159.243 94.5496 158.797 95.1306 158.518C95.7115 158.239 96.3625 158.14 97 158.234C97.6374 158.328 98.2323 158.611 98.708 159.045C99.1837 159.48 99.5186 160.047 99.6697 160.673C99.8208 161.3 99.7811 161.957 99.5557 162.561C99.2636 163.343 98.6799 163.982 97.9269 164.343C97.1739 164.705 96.3102 164.761 95.517 164.499V164.499Z" fill="#B7B1A9"/>
<path d="M109.814 168.296C108.983 168.138 108.246 167.661 107.762 166.966C107.279 166.271 107.088 165.414 107.229 164.58C107.302 164.167 107.456 163.772 107.684 163.42C107.911 163.067 108.206 162.763 108.552 162.526C108.898 162.289 109.288 162.124 109.699 162.04C110.11 161.955 110.534 161.954 110.945 162.036C111.383 162.079 111.807 162.213 112.191 162.429C112.575 162.645 112.91 162.938 113.175 163.289C113.44 163.641 113.629 164.043 113.731 164.471C113.833 164.9 113.845 165.344 113.767 165.777C113.689 166.211 113.522 166.623 113.276 166.988C113.031 167.354 112.713 167.665 112.341 167.901C111.97 168.138 111.554 168.295 111.119 168.363C110.684 168.431 110.24 168.408 109.814 168.296Z" fill="#B7B1A9"/>
<path d="M124.596 169.628C126.381 169.628 127.827 168.182 127.827 166.397C127.827 164.613 126.381 163.166 124.596 163.166C122.812 163.166 121.365 164.613 121.365 166.397C121.365 168.182 122.812 169.628 124.596 169.628Z" fill="#B7B1A9"/>
<path d="M139.297 168.296C138.677 168.397 138.04 168.313 137.467 168.054C136.894 167.794 136.411 167.372 136.077 166.839C135.744 166.305 135.576 165.686 135.593 165.057C135.611 164.429 135.814 163.819 136.177 163.306C136.54 162.792 137.046 162.397 137.633 162.171C138.219 161.944 138.86 161.896 139.473 162.032C140.087 162.168 140.647 162.482 141.083 162.936C141.519 163.389 141.811 163.961 141.922 164.58C142.053 165.419 141.851 166.276 141.362 166.969C140.872 167.662 140.131 168.138 139.297 168.296Z" fill="#B7B1A9"/>
<path d="M153.675 164.499C153.073 164.732 152.416 164.779 151.786 164.635C151.157 164.49 150.586 164.161 150.146 163.689C149.706 163.217 149.417 162.624 149.317 161.986C149.218 161.348 149.311 160.696 149.585 160.111C149.86 159.527 150.303 159.039 150.858 158.709C151.412 158.379 152.053 158.223 152.697 158.26C153.342 158.298 153.96 158.527 154.473 158.92C154.985 159.312 155.369 159.848 155.574 160.46C155.837 161.249 155.787 162.108 155.434 162.86C155.08 163.612 154.45 164.199 153.675 164.499V164.499Z" fill="#B7B1A9"/>
<path d="M167.044 157.997C166.31 158.425 165.436 158.545 164.614 158.329C163.792 158.113 163.09 157.579 162.662 156.846C162.233 156.112 162.114 155.238 162.33 154.416C162.545 153.595 163.079 152.892 163.813 152.464C164.546 152.035 165.42 151.916 166.242 152.132C166.649 152.239 167.031 152.424 167.366 152.679C167.701 152.933 167.983 153.251 168.195 153.615C168.407 153.978 168.545 154.38 168.602 154.796C168.659 155.213 168.634 155.637 168.527 156.044C168.42 156.451 168.234 156.833 167.979 157.168C167.725 157.503 167.407 157.785 167.044 157.997V157.997Z" fill="#B7B1A9"/>
<path d="M179.16 149.717C178.671 150.131 178.07 150.39 177.433 150.462C176.796 150.534 176.153 150.414 175.584 150.119C175.015 149.824 174.547 149.366 174.239 148.804C173.931 148.243 173.797 147.602 173.854 146.964C173.911 146.326 174.157 145.719 174.559 145.22C174.962 144.722 175.504 144.355 176.116 144.165C176.728 143.975 177.382 143.972 177.996 144.155C178.61 144.338 179.156 144.7 179.564 145.194C179.837 145.516 180.043 145.89 180.171 146.292C180.299 146.695 180.345 147.119 180.307 147.54C180.27 147.961 180.149 148.37 179.952 148.744C179.755 149.117 179.486 149.448 179.16 149.717V149.717Z" fill="#B7B1A9"/>
<path d="M189.661 139.257C189.09 139.79 188.346 140.099 187.566 140.126C186.785 140.154 186.021 139.897 185.415 139.404C184.809 138.912 184.402 138.216 184.269 137.447C184.137 136.677 184.287 135.885 184.693 135.218C184.933 134.824 185.254 134.486 185.636 134.226C186.017 133.967 186.45 133.792 186.904 133.713C187.359 133.635 187.825 133.655 188.271 133.772C188.718 133.888 189.134 134.099 189.492 134.39C189.85 134.681 190.141 135.046 190.346 135.459C190.552 135.872 190.666 136.324 190.682 136.785C190.698 137.246 190.616 137.705 190.439 138.132C190.263 138.558 189.998 138.942 189.661 139.257V139.257Z" fill="#B7B1A9"/>
<path d="M117.084 5.16821e-06C117.712 -0.0531341 118.341 0.080747 118.893 0.384773C119.445 0.688799 119.894 1.14936 120.185 1.70841C120.475 2.26746 120.593 2.89996 120.525 3.52621C120.456 4.15245 120.204 4.7444 119.8 5.22745C119.395 5.71049 118.857 6.063 118.252 6.24055C117.648 6.41811 117.004 6.41275 116.403 6.22516C115.802 6.03756 115.269 5.67614 114.873 5.18643C114.477 4.69672 114.234 4.10065 114.176 3.47335C114.137 3.05403 114.182 2.63118 114.307 2.22918C114.433 1.82717 114.636 1.45397 114.907 1.13108C115.177 0.808195 115.509 0.542013 115.882 0.347886C116.256 0.153759 116.664 0.0355259 117.084 5.16821e-06V5.16821e-06Z" fill="#B7B1A9"/>
<path d="M102.504 2.58482C103.117 2.4127 103.767 2.42548 104.373 2.62156C104.978 2.81764 105.513 3.18826 105.908 3.68692C106.304 4.18557 106.544 4.79003 106.597 5.4244C106.651 6.05877 106.515 6.69479 106.209 7.2526C105.902 7.81041 105.437 8.26516 104.873 8.55976C104.308 8.85436 103.67 8.97568 103.037 8.90848C102.403 8.84128 101.804 8.58857 101.314 8.18206C100.824 7.77556 100.466 7.23338 100.283 6.62359C100.154 6.21269 100.109 5.77992 100.152 5.35136C100.194 4.92279 100.324 4.5073 100.531 4.12993C100.739 3.75256 101.02 3.42111 101.359 3.15556C101.699 2.89002 102.088 2.69587 102.504 2.58482V2.58482Z" fill="#B7B1A9"/>
<path d="M91.3267 13.5195C92.9415 12.76 93.6348 10.8353 92.8753 9.22055C92.1158 7.60581 90.1911 6.91249 88.5764 7.67199C86.9616 8.43149 86.2683 10.3562 87.0278 11.9709C87.7873 13.5857 89.712 14.279 91.3267 13.5195Z" fill="#B7B1A9"/>
<path d="M79.4455 20.3048C80.8883 19.2931 81.2377 17.3034 80.226 15.8606C79.2142 14.4179 77.2245 14.0685 75.7817 15.0802C74.339 16.0919 73.9896 18.0817 75.0013 19.5244C76.013 20.9672 78.0028 21.3166 79.4455 20.3048Z" fill="#B7B1A9"/>
<path d="M64.4184 24.7173C64.87 24.2646 65.4457 23.9561 66.0726 23.8308C66.6996 23.7055 67.3497 23.7691 67.9405 24.0134C68.5314 24.2577 69.0364 24.6718 69.3918 25.2033C69.7472 25.7348 69.9369 26.3598 69.9369 26.9992C69.9369 27.6386 69.7472 28.2636 69.3918 28.7951C69.0364 29.3266 68.5314 29.7407 67.9405 29.985C67.3497 30.2293 66.6996 30.2929 66.0726 30.1676C65.4457 30.0422 64.87 29.7337 64.4184 29.2811C64.1143 28.9839 63.8727 28.629 63.7078 28.2371C63.5428 27.8453 63.4578 27.4244 63.4578 26.9992C63.4578 26.574 63.5428 26.1531 63.7078 25.7613C63.8727 25.3694 64.1143 25.0145 64.4184 24.7173Z" fill="#B7B1A9"/>
<path d="M54.9273 35.9451C55.1659 35.5944 55.4721 35.2949 55.8278 35.064C56.1836 34.833 56.5818 34.6753 56.9993 34.6001C57.4167 34.5249 57.8449 34.5337 58.2589 34.6259C58.6729 34.7182 59.0643 34.892 59.4103 35.1373C59.8171 35.3504 60.1738 35.6477 60.4567 36.0094C60.7395 36.3712 60.942 36.7891 61.0506 37.2353C61.1593 37.6814 61.1715 38.1456 61.0866 38.5969C61.0017 39.0482 60.8216 39.4762 60.5583 39.8524C60.2949 40.2286 59.9544 40.5444 59.5595 40.7786C59.1645 41.0129 58.7241 41.1602 58.2677 41.2109C57.8113 41.2615 57.3494 41.2143 56.9126 41.0724C56.4759 40.9304 56.0745 40.697 55.7351 40.3877C55.3901 40.1493 55.0955 39.8451 54.8681 39.4927C54.6408 39.1403 54.4852 38.7465 54.4101 38.3339C54.3351 37.9212 54.3422 37.4979 54.4309 37.088C54.5197 36.6781 54.6883 36.2897 54.9273 35.9451V35.9451Z" fill="#B7B1A9"/>
<path d="M53.3765 51.5292C54.1327 49.9129 53.4353 47.9896 51.819 47.2335C50.2027 46.4774 48.2794 47.1747 47.5233 48.7911C46.7672 50.4074 47.4645 52.3307 49.0809 53.0868C50.6972 53.8429 52.6204 53.1455 53.3765 51.5292Z" fill="#B7B1A9"/>
<path d="M201.535 48.6672C201.815 49.2455 201.916 49.8942 201.826 50.5304C201.735 51.1666 201.457 51.7614 201.027 52.2388C200.597 52.7161 200.034 53.0544 199.411 53.2103C198.787 53.3661 198.132 53.3326 197.527 53.1139C196.923 52.8953 196.398 52.5014 196.019 51.9826C195.639 51.4639 195.423 50.8438 195.398 50.2017C195.373 49.5596 195.54 48.9246 195.878 48.3779C196.216 47.8312 196.709 47.3976 197.294 47.1325C198.06 46.7741 198.937 46.7344 199.732 47.0222C200.527 47.31 201.176 47.9016 201.535 48.6672V48.6672Z" fill="#B7B1A9"/>
<path d="M194.063 35.8643C194.473 36.5664 194.603 37.3972 194.428 38.191C194.252 38.9848 193.784 39.6833 193.116 40.1471C192.448 40.6109 191.63 40.8059 190.825 40.6934C190.02 40.5808 189.287 40.1688 188.772 39.5396C188.49 39.1946 188.282 38.795 188.162 38.3659C188.041 37.9368 188.011 37.4874 188.073 37.046C188.135 36.6046 188.287 36.1807 188.52 35.8011C188.754 35.4214 189.063 35.0941 189.429 34.8399C189.795 34.5856 190.21 34.4098 190.647 34.3235C191.085 34.2373 191.535 34.2424 191.97 34.3386C192.405 34.4348 192.816 34.6201 193.176 34.8826C193.536 35.1452 193.838 35.4794 194.063 35.8643V35.8643Z" fill="#B7B1A9"/>
<path d="M184.613 29.0769C185.875 27.8155 185.876 25.7697 184.614 24.5075C183.353 23.2453 181.307 23.2446 180.045 24.5059C178.783 25.7673 178.782 27.813 180.044 29.0753C181.305 30.3375 183.351 30.3382 184.613 29.0769Z" fill="#B7B1A9"/>
<path d="M173.223 14.9838C173.561 15.2348 173.846 15.5501 174.062 15.9117C174.277 16.2733 174.419 16.6741 174.48 17.0908C174.54 17.5075 174.517 17.932 174.412 18.3398C174.307 18.7477 174.123 19.1307 173.869 19.4669C173.373 20.1577 172.628 20.6284 171.791 20.7792C170.954 20.93 170.092 20.749 169.386 20.2746C169.037 20.0292 168.741 19.717 168.513 19.3563C168.285 18.9955 168.132 18.5933 168.06 18.1728C167.989 17.7522 168.001 17.3218 168.097 16.9061C168.193 16.4905 168.37 16.098 168.619 15.7512C168.856 15.3814 169.169 15.0654 169.536 14.8236C169.903 14.5818 170.317 14.4196 170.751 14.3473C171.184 14.275 171.628 14.2943 172.054 14.4039C172.48 14.5136 172.878 14.7111 173.223 14.9838V14.9838Z" fill="#B7B1A9"/>
<path d="M160.42 7.59289C161.181 7.96809 161.767 8.62435 162.053 9.42313C162.339 10.2219 162.304 11.1007 161.955 11.874C161.595 12.6394 160.949 13.233 160.156 13.5275C159.363 13.822 158.486 13.7939 157.714 13.4491C157.305 13.288 156.932 13.0449 156.62 12.7348C156.308 12.4246 156.062 12.054 155.898 11.6455C155.735 11.2371 155.656 10.7995 155.667 10.3596C155.678 9.91965 155.779 9.48667 155.964 9.08718C156.149 8.68769 156.413 8.33012 156.741 8.0364C157.068 7.74268 157.453 7.519 157.87 7.37908C158.287 7.23916 158.728 7.18596 159.167 7.22272C159.605 7.25949 160.032 7.38545 160.42 7.59289V7.59289Z" fill="#B7B1A9"/>
<path d="M146.527 2.54443C146.943 2.65609 147.334 2.85008 147.674 3.11496C148.015 3.37984 148.299 3.71024 148.51 4.08668C148.72 4.46311 148.854 4.87796 148.902 5.30673C148.949 5.73551 148.911 6.16953 148.788 6.5832C148.512 7.34155 147.962 7.96905 147.246 8.34219C146.531 8.71534 145.701 8.80712 144.921 8.59948C144.141 8.39183 143.467 7.89979 143.032 7.22019C142.597 6.54059 142.431 5.72264 142.569 4.9273C142.668 4.50851 142.85 4.11373 143.103 3.76615C143.357 3.41856 143.678 3.12517 144.046 2.9032C144.415 2.68123 144.824 2.53515 145.25 2.47354C145.676 2.41193 146.11 2.43603 146.527 2.54443V2.54443Z" fill="#B7B1A9"/>
<path d="M131.947 -2.68934e-06C132.366 0.0371239 132.773 0.156415 133.146 0.35106C133.519 0.545704 133.85 0.811891 134.12 1.13442C134.39 1.45695 134.594 1.82951 134.72 2.23082C134.846 2.63213 134.892 3.05434 134.855 3.47334C134.817 3.89234 134.698 4.29993 134.504 4.67282C134.309 5.04572 134.043 5.37663 133.72 5.64665C133.398 5.91668 133.025 6.12053 132.624 6.24658C132.222 6.37262 131.8 6.41838 131.381 6.38126C130.535 6.30628 129.753 5.89821 129.208 5.24684C128.663 4.59546 128.398 3.75412 128.473 2.90791C128.548 2.06171 128.956 1.27994 129.608 0.734602C130.259 0.189262 131.1 -0.0749831 131.947 -2.68934e-06Z" fill="#B7B1A9"/>
<path d="M222.779 63.0856H220.921V62.1567H225.929V63.0856H224.071V67.1244H222.779V63.0856Z" fill="#82786F"/>
<path d="M231.26 62.1567H233.239V67.0436H231.906V63.0048L230.331 67.0436H229.241L227.666 63.0048V67.0436H226.373V62.1567H228.352L229.806 65.7108L231.26 62.1567Z" fill="#82786F"/>
</g>
<defs>
<radialGradient id="paint0_radial" cx="0" cy="0" r="1" gradientUnits="userSpaceOnUse" gradientTransform="translate(124.556 84.6527) rotate(89.6382) scale(70.3487)">
<stop offset="0.588542" stop-color="#FDC82F"/>
<stop offset="1" stop-color="#FDC82F" stop-opacity="0"/>
</radialGradient>
<clipPath id="clip0">
<rect width="250" height="169.628" fill="white"/>
</clipPath>
</defs>
</svg>
